<svg width="445" height="256" viewBox="0 0 445 256" fill="none" xmlns="http://www.w3.org/2000/svg">
<path d="M9.05536 171.88C9.05536 158.458 9.05536 156.077 9.05536 153.046C9.05536 150.015 8.20316 148.716 5.22044 148.067C4.58129 148.067 3.08993 147.85 1.81163 147.85C0.533319 147.85 0.320267 147.85 0.320267 146.984C0.320267 146.118 0.959415 146.118 2.23772 146.118C6.92485 146.118 12.2511 146.335 13.9555 146.335C18.2166 146.335 21.6254 146.118 24.6081 146.118C40.3739 146.118 43.1435 154.778 43.1435 159.324C43.1435 166.468 39.0956 170.798 34.1954 174.695C41.2261 177.076 49.9612 183.354 49.9612 193.746C49.9612 204.138 42.7174 213.014 26.7386 213.014C10.7598 213.014 23.1167 213.014 20.5601 212.797C18.0035 212.797 15.2338 212.581 13.9555 212.581C12.6772 212.581 11.1859 212.581 9.05536 212.581C7.1379 212.581 4.79434 212.581 3.08993 212.581C1.38552 212.581 1.38552 212.364 1.38552 211.715C1.38552 211.065 1.81163 211.065 2.87688 211.065C3.94214 211.065 5.22044 211.065 6.07265 210.632C7.77706 210.199 8.20315 208.251 8.62926 205.869C9.05536 202.189 9.05536 195.261 9.05536 187.035V171.448V171.88ZM19.4949 173.179C19.4949 173.829 19.7079 174.045 20.134 174.262C20.9862 174.262 22.2645 174.478 24.182 174.478C26.9517 174.478 28.8691 174.045 30.3605 172.746C32.704 170.798 33.9823 167.767 33.9823 163.437C33.9823 159.108 30.5735 149.798 23.1167 149.798C15.66 149.798 21.1993 149.798 20.3471 149.798C19.7079 149.798 19.4949 150.231 19.4949 151.314V173.179ZM30.9996 180.324C29.0822 179.025 27.1647 178.375 23.7559 178.159C22.2645 178.159 21.4123 178.159 19.921 178.159C18.4296 178.159 19.4949 178.159 19.4949 178.808V199.808C19.4949 205.653 19.7079 207.168 22.4776 208.251C24.8211 209.117 26.7386 209.333 28.8691 209.333C32.704 209.333 39.3086 207.168 39.3086 198.076C39.3086 188.983 37.3912 185.086 30.7866 180.54L30.9996 180.324Z" fill="#231F20"/>
<path d="M68.9227 171.88C68.9227 158.458 68.9227 156.077 68.9227 153.046C68.9227 150.015 68.0705 148.716 65.0878 148.067C64.4487 148.067 62.9573 147.85 61.679 147.85C60.4007 147.85 60.1877 147.85 60.1877 146.984C60.1877 146.118 60.8268 146.118 62.1051 146.118C66.7922 146.118 72.1185 146.335 74.036 146.335C77.0187 146.335 83.6233 146.118 86.3929 146.118C91.9323 146.118 97.6846 146.551 102.372 150.015C104.715 151.747 108.337 156.293 108.337 162.138C108.337 167.984 105.568 174.695 96.8324 181.839C104.502 191.798 110.468 199.591 115.794 205.004C120.694 210.199 124.316 210.632 125.594 211.065C126.66 211.065 127.299 211.282 127.938 211.282C128.577 211.282 129.003 211.498 129.003 211.931C129.003 212.581 128.364 212.797 127.299 212.797H118.99C114.09 212.797 111.959 212.364 109.616 211.065C105.781 209.117 102.585 204.787 97.6846 198.076C94.2758 193.313 90.2279 187.251 89.1626 185.952C88.7365 185.519 88.0973 185.303 87.6712 185.303H80.2144C79.7883 185.303 79.5753 185.303 79.5753 185.736V187.035C79.5753 195.261 79.5753 202.189 80.0014 205.869C80.2144 208.467 80.8536 210.416 83.4102 210.632C84.6885 210.632 86.606 211.065 87.6712 211.065C88.7365 211.065 88.7365 211.282 88.7365 211.715C88.7365 212.364 88.0973 212.581 87.0321 212.581C81.9189 212.581 75.5273 212.364 74.249 212.364C72.9707 212.364 67.2183 212.581 63.5965 212.581C59.9746 212.581 61.8921 212.364 61.8921 211.715C61.8921 211.065 62.3182 211.065 63.3834 211.065C64.4487 211.065 65.727 211.065 66.5792 210.632C68.2836 210.199 68.7097 208.251 69.1358 205.869C69.5619 202.189 69.5619 195.261 69.5619 187.035V171.448L68.9227 171.88ZM79.1492 178.808C79.1492 179.891 79.1492 180.107 80.0014 180.324C81.9189 180.973 84.4755 181.19 86.606 181.19C90.0148 181.19 91.2931 180.757 92.7845 179.674C95.3411 177.726 97.8977 173.612 97.8977 166.468C97.8977 153.912 89.8018 150.231 84.6885 150.231C79.5753 150.231 80.8536 150.231 80.0014 150.664C79.3622 150.664 79.1492 151.097 79.1492 151.963V178.808Z" fill="#231F20"/>
<path d="M138.164 189.849C137.738 189.849 137.525 189.849 137.312 190.499L132.625 203.055C131.773 205.22 131.347 207.385 131.347 208.467C131.347 209.983 132.199 211.282 134.756 211.282H136.034C137.099 211.282 137.312 211.282 137.312 211.931C137.312 212.581 136.886 212.797 135.821 212.797C133.051 212.797 129.216 212.581 126.66 212.581C124.103 212.581 120.907 212.797 116.433 212.797C111.959 212.797 114.729 212.797 114.729 211.931C114.729 211.065 115.155 211.282 115.794 211.282C116.433 211.282 117.711 211.282 118.564 211.282C122.612 210.849 124.316 207.818 126.02 203.272L147.752 147.85C148.817 145.252 149.243 144.386 150.095 144.386C150.947 144.386 151.374 145.252 152.226 147.201C154.356 151.963 168.205 188.117 173.744 201.54C177.153 209.55 179.496 210.632 181.414 211.065C182.692 211.282 183.97 211.498 185.036 211.498C186.101 211.498 186.101 211.498 186.101 212.148C186.101 212.797 185.249 213.014 182.053 213.014C178.857 213.014 172.679 213.014 165.648 213.014C164.157 213.014 163.091 213.014 163.091 212.364C163.091 211.715 163.517 211.715 164.37 211.498C165.009 211.498 165.648 210.416 165.222 209.55L158.191 190.715C158.191 190.282 157.765 190.066 157.339 190.066H137.951L138.164 189.849ZM155.848 185.519C156.274 185.519 156.274 185.303 156.274 185.086L148.391 163.221C148.391 162.788 148.391 162.355 147.965 162.355C147.539 162.355 147.539 162.788 147.539 163.221L139.443 184.87C139.443 185.303 139.443 185.519 139.869 185.519H155.848Z" fill="#231F20"/>
<path d="M182.266 154.778C180.348 150.015 178.857 148.932 175.661 148.067C174.383 147.634 172.892 147.634 172.253 147.634C171.613 147.634 171.187 147.417 171.187 146.768C171.187 146.118 172.039 145.902 173.531 145.902C178.218 145.902 183.118 146.118 186.101 146.118C189.084 146.118 192.492 145.902 196.753 145.902C201.014 145.902 198.671 145.902 198.671 146.768C198.671 147.634 198.245 147.634 197.393 147.634C195.901 147.634 194.623 147.634 193.984 148.283C193.345 148.716 193.132 149.365 193.132 150.231C193.132 151.314 193.984 153.912 195.049 156.943L209.963 196.993H210.389C214.224 187.251 225.515 158.891 227.433 153.046C227.859 151.963 228.285 150.664 228.285 149.798C228.285 148.932 227.859 148.283 227.22 148.067C226.154 147.634 224.876 147.634 223.811 147.634C222.746 147.634 222.32 147.634 222.32 146.984C222.32 146.335 223.172 146.118 224.663 146.118C228.924 146.118 232.759 146.335 233.824 146.335C234.89 146.335 239.364 146.118 241.92 146.118C244.477 146.118 243.838 146.118 243.838 146.984C243.838 147.85 243.412 147.85 242.346 147.85C241.281 147.85 239.577 147.85 238.085 148.932C237.02 149.798 235.742 151.314 233.398 156.943C229.989 165.169 227.646 169.932 222.959 180.973C217.419 193.962 213.371 203.488 211.454 208.034C209.11 213.23 208.684 214.529 207.406 214.529C206.128 214.529 205.702 213.23 203.997 209.117L182.053 155.211L182.266 154.778Z" fill="#231F20"/>
<path d="M249.59 171.88C249.59 158.458 249.59 156.077 249.59 153.046C249.59 150.015 248.738 148.716 245.755 148.067C245.116 148.067 243.625 147.85 242.346 147.85C241.068 147.85 240.855 147.85 240.855 146.984C240.855 146.118 241.494 146.118 242.772 146.118C247.46 146.118 252.786 146.335 255.556 146.335C258.325 146.335 263.225 146.118 266.208 146.118C269.191 146.118 268.126 146.118 268.126 146.984C268.126 147.85 267.699 147.85 266.634 147.85C265.569 147.85 265.143 147.85 264.078 148.067C261.734 148.5 261.095 150.015 260.882 153.046C260.882 155.86 260.882 158.458 260.882 171.88V184.22C260.882 196.993 263.438 202.406 267.699 205.87C271.534 209.117 275.582 209.55 278.565 209.55C281.548 209.55 287.087 208.251 290.496 204.787C295.183 200.024 295.609 192.014 295.609 182.922V171.88C295.609 158.458 295.609 156.077 295.609 153.046C295.609 150.015 294.757 148.716 291.774 148.067C291.135 148.067 289.644 147.85 288.578 147.85C287.513 147.85 287.087 147.85 287.087 146.984C287.087 146.118 287.726 146.118 289.005 146.118C293.479 146.118 299.018 146.335 299.018 146.335C300.083 146.335 305.623 146.118 309.031 146.118C312.44 146.118 310.949 146.118 310.949 146.984C310.949 147.85 310.31 147.85 309.458 147.85C308.605 147.85 307.966 147.85 306.901 148.067C304.557 148.5 303.918 150.015 303.705 153.046C303.705 155.86 303.705 158.458 303.705 171.88V181.406C303.705 191.148 302.853 201.54 295.396 208.034C289.218 213.447 283.039 214.313 277.287 214.313C271.534 214.313 264.291 214.096 257.899 208.251C253.425 204.138 250.229 197.643 250.229 184.87V171.88H249.59Z" fill="#231F20"/>
<path d="M327.354 171.88C327.354 158.458 327.354 156.077 327.354 153.046C327.354 150.015 326.502 148.716 323.519 148.067C322.88 148.067 321.388 147.85 320.11 147.85C318.832 147.85 318.619 147.85 318.619 146.984C318.619 146.118 319.258 146.118 320.536 146.118C325.223 146.118 330.55 146.335 332.467 146.335C335.45 146.335 342.054 146.118 344.824 146.118C350.363 146.118 356.116 146.551 360.803 150.015C363.146 151.747 366.768 156.293 366.768 162.138C366.768 167.984 363.999 174.695 355.263 181.839C362.933 191.798 368.899 199.591 374.225 205.004C379.125 210.199 382.747 210.632 384.025 211.065C384.878 211.065 385.73 211.282 386.369 211.282C387.008 211.282 387.434 211.498 387.434 211.931C387.434 212.581 386.795 212.797 385.73 212.797H377.421C372.521 212.797 370.39 212.364 368.047 211.065C364.212 209.117 361.016 204.787 356.116 198.076C352.707 193.313 348.659 187.251 347.594 185.952C347.167 185.519 346.741 185.303 346.102 185.303H338.432C338.006 185.303 337.793 185.303 337.793 185.736V187.035C337.793 195.261 337.793 202.189 338.219 205.869C338.432 208.467 339.072 210.416 341.628 210.632C342.906 210.632 344.824 211.065 345.889 211.065C346.954 211.065 346.954 211.282 346.954 211.715C346.954 212.364 346.315 212.581 345.25 212.581C340.137 212.581 333.745 212.364 332.467 212.364C331.189 212.364 325.223 212.581 321.814 212.581C318.406 212.581 320.11 212.364 320.11 211.715C320.11 211.065 320.536 211.065 321.388 211.065C322.241 211.065 323.732 211.065 324.584 210.632C326.288 210.199 326.715 208.251 327.141 205.869C327.567 202.189 327.567 195.261 327.567 187.035V171.448L327.354 171.88ZM337.58 178.808C337.58 179.891 337.58 180.107 338.432 180.324C340.35 180.973 342.906 181.19 345.037 181.19C348.446 181.19 349.724 180.757 351.215 179.674C353.772 177.726 356.329 173.612 356.329 166.468C356.329 153.912 348.233 150.231 343.12 150.231C338.006 150.231 339.285 150.231 338.432 150.664C337.793 150.664 337.58 151.097 337.58 151.963V178.808Z" fill="#231F20"/>
<path d="M396.595 189.849C396.169 189.849 395.956 189.849 395.743 190.499L391.056 203.055C390.204 205.22 389.778 207.385 389.778 208.467C389.778 209.983 390.63 211.282 393.187 211.282H394.465C395.53 211.282 395.743 211.282 395.743 211.931C395.743 212.581 395.104 212.797 394.252 212.797C391.482 212.797 387.647 212.581 385.091 212.581C382.534 212.581 379.338 212.797 374.864 212.797C370.39 212.797 373.16 212.797 373.16 211.931C373.16 211.065 373.586 211.282 374.225 211.282C374.864 211.282 376.143 211.282 376.995 211.282C381.043 210.849 382.747 207.818 384.451 203.272L406.183 147.85C407.248 145.252 407.674 144.386 408.526 144.386C409.378 144.386 409.805 145.252 410.657 147.201C412.787 151.963 426.636 188.117 432.175 201.54C435.584 209.55 437.927 210.632 439.845 211.065C441.123 211.282 442.401 211.498 443.467 211.498C444.532 211.498 444.532 211.498 444.532 212.148C444.532 212.797 443.68 213.014 440.484 213.014C437.288 213.014 430.897 213.014 424.079 213.014C422.588 213.014 421.522 213.014 421.522 212.364C421.522 211.715 421.948 211.715 422.801 211.498C423.44 211.498 424.079 210.416 423.653 209.55L416.622 190.715C416.622 190.282 416.196 190.066 415.77 190.066H396.382L396.595 189.849ZM414.279 185.519C414.705 185.519 414.705 185.303 414.705 185.086L406.822 163.221C406.822 162.788 406.822 162.355 406.396 162.355C405.97 162.355 405.97 162.788 405.97 163.221L397.874 184.87C397.874 185.303 397.874 185.519 398.3 185.519H414.279Z" fill="#231F20"/>
<path d="M263.651 14.7087C263.651 14.7087 262.799 19.4715 256.834 23.5848C250.868 27.6981 244.69 28.997 244.69 28.997C244.69 28.997 240.003 25.7497 237.02 24.8837C234.25 23.8013 227.433 24.6672 227.433 24.6672C227.433 24.6672 233.185 20.5539 234.89 18.1725C237.02 15.3581 237.872 13.6262 237.872 13.6262C237.872 13.6262 254.703 16.8736 263.651 14.7087Z" fill="#231F20"/>
<path d="M142.851 48.4811C142.851 48.4811 143.278 47.8316 145.195 46.9657C147.113 46.3162 152.013 41.5534 152.013 41.5534C152.013 41.5534 146.473 44.1513 144.556 45.4502C142.638 46.7492 140.934 46.0997 140.721 43.7183C140.721 41.3369 149.669 35.9247 152.865 33.5433C156.061 31.1619 158.404 28.7805 158.404 28.7805C158.404 28.7805 163.731 33.5433 164.583 34.6257C165.435 35.7082 169.057 38.9555 172.679 38.739C176.514 38.739 175.874 34.8422 177.366 34.1928C178.857 33.5433 166.287 33.5433 166.287 33.5433L159.469 27.698C159.469 27.698 162.239 24.4507 166.074 21.6363C169.909 18.8219 178.431 14.9251 178.431 14.9251C178.431 14.9251 183.331 7.78093 187.166 4.96656C191.001 2.15219 202.08 2.15218 203.571 2.36867C205.062 2.80165 190.788 11.6778 190.788 13.6262V16.2241C190.788 16.2241 203.571 6.2655 205.489 4.53358C207.832 2.36867 209.963 1.28622 209.963 1.28622C209.963 1.28622 215.076 8.21392 214.011 15.5746C212.945 22.9353 208.471 26.3991 208.471 26.3991C208.471 26.3991 215.289 23.8012 216.141 18.6054C216.993 13.6262 216.141 6.48199 216.141 6.48199H230.415C230.415 6.48199 233.824 5.83253 237.02 1.9357C239.151 -0.445693 238.938 -0.878681 238.511 3.45113C237.872 7.78093 237.872 16.4406 227.22 22.2858C216.567 28.131 212.306 28.3475 212.306 28.3475C212.306 28.3475 230.842 24.2342 236.381 26.8321C241.92 29.6465 247.46 36.5741 255.129 40.471C261.947 44.1513 270.256 44.1513 270.256 44.1513C270.256 44.1513 265.995 50.646 260.669 51.512C255.342 52.3779 244.051 48.6976 238.725 46.7492C233.398 44.8008 231.268 43.0689 222.746 43.2853C220.615 43.2853 214.011 44.8008 214.011 44.8008C214.011 44.8008 227.433 46.7492 238.725 51.512C250.016 56.2748 260.882 59.0891 268.765 57.7902C276.648 56.4912 279.417 55.1923 279.417 55.1923C279.417 55.1923 277.926 64.0684 270.682 67.5322C262.586 71.4291 255.129 69.4807 249.377 66.2333C243.838 62.986 236.594 56.7077 230.629 54.5428C224.663 52.3779 219.976 52.1614 219.976 52.1614C219.976 52.1614 242.559 62.12 244.264 84.202C246.607 116.459 220.402 127.067 220.402 127.067C220.402 127.067 231.481 110.614 232.546 95.8925C233.611 81.8206 231.694 76.1919 228.072 71.2126C224.663 66.2333 216.78 59.0891 216.78 59.0891C216.78 59.0891 229.35 73.594 229.989 86.3669C230.416 95.676 228.072 109.098 219.976 118.407C211.88 127.5 210.176 130.531 210.602 139.407C210.602 143.52 213.584 167.118 213.584 167.118C213.584 167.118 198.245 131.18 199.523 115.81C200.801 100.655 211.028 92.4286 214.437 86.3669C217.845 80.3052 217.845 71.8621 215.928 65.8003C214.011 59.7386 211.88 56.0583 210.602 52.8109C209.323 49.5636 207.832 43.0689 207.832 43.0689C207.832 43.0689 207.619 49.3471 208.684 53.8934C209.963 58.4397 210.602 66.2333 199.736 77.7073C188.871 89.1813 186.74 89.8308 181.201 92.6451C177.366 94.5935 171.613 93.0781 171.187 87.2329C170.974 81.6041 171.187 72.295 171.187 72.295C171.187 72.295 176.087 80.3052 179.709 77.0578C183.118 73.8105 186.101 70.9961 187.166 67.9652C188.018 65.5838 187.379 65.3673 187.379 65.3673C187.379 65.3673 181.414 63.2024 176.727 65.3673C172.039 67.5322 160.535 79.8722 152.652 79.8722C144.769 79.8722 142.425 74.6764 141.786 72.295C140.934 69.6972 141.573 65.5838 141.573 65.5838C141.573 65.5838 146.26 77.9238 154.356 75.3259C162.452 72.728 170.761 63.4189 173.744 61.687C177.579 59.3056 187.805 59.5221 187.805 59.5221C187.805 59.5221 185.036 50.8625 177.153 51.512C169.27 52.1614 161.813 54.3263 161.813 58.4397C161.813 62.553 162.026 67.5322 162.026 67.5322C162.026 67.5322 149.669 60.6046 148.391 58.6561C145.834 55.4088 146.047 51.945 146.047 51.945C146.047 51.945 152.652 47.8316 155.848 43.7183C159.043 39.605 159.896 39.605 159.896 39.605C159.896 39.605 164.157 41.1204 166.713 41.1204C169.27 41.1204 161.387 38.9555 159.469 37.2236C157.552 35.7082 155.635 41.7699 150.521 45.8832C145.195 49.9965 144.343 49.1306 143.278 48.0481" fill="#231F20"/>
<path d="M239.79 65.3674C239.79 65.3674 256.408 80.5218 272.6 78.5734C283.891 77.0579 286.022 74.2435 286.022 74.2435C286.022 74.2435 286.022 89.1814 269.404 88.7484C255.982 88.3154 251.294 82.6867 246.82 76.6249C242.346 70.5632 239.79 65.3674 239.79 65.3674Z" fill="#231F20"/>
<path d="M207.406 19.4714C207.406 19.4714 208.684 10.3788 206.128 10.1624C204.21 10.1624 192.492 19.0385 192.492 19.0385L206.767 30.5124C206.767 30.5124 204.636 26.3991 202.08 24.0177C199.523 21.4198 195.901 19.4714 195.901 19.4714L205.062 12.3273C205.062 12.3273 207.619 16.2241 207.406 19.4714Z" fill="#231F20"/>
<path d="M247.886 31.3783C247.886 31.3783 259.39 32.8937 263.438 31.3783C272.6 27.9145 273.878 23.3682 273.878 23.3682C273.878 23.3682 278.139 47.1821 247.886 31.3783Z" fill="#231F20"/>
<path d="M171.187 241.807V251.766C168.418 254.363 165.648 255.446 162.452 255.446C159.256 255.446 159.043 255.013 157.552 254.363C156.061 253.714 154.782 252.631 153.504 251.549C152.439 250.25 151.374 248.951 150.734 247.219C150.095 245.704 149.669 243.972 149.669 242.023C149.669 240.075 150.095 238.56 150.734 236.828C151.374 235.096 152.226 233.797 153.504 232.498C154.569 231.199 156.061 230.333 157.552 229.684C159.043 229.034 160.748 228.601 162.239 228.601C163.73 228.601 165.435 228.818 166.926 229.467C168.418 230.116 169.483 230.766 170.548 231.632L169.27 234.013C167.352 232.065 165.009 231.199 162.665 231.199C160.322 231.199 160.109 231.415 158.83 232.065C157.552 232.714 156.7 233.364 155.635 234.446C154.782 235.312 154.143 236.611 153.504 237.91C153.078 239.209 152.652 240.508 152.652 242.023C152.652 243.539 152.865 244.838 153.504 246.137C153.93 247.436 154.782 248.518 155.635 249.601C156.487 250.683 157.552 251.333 158.617 251.982C159.683 252.631 160.961 252.848 162.239 252.848C163.517 252.848 164.583 252.848 165.648 252.199C166.713 251.549 167.778 251.116 168.418 250.467V244.405H162.665V241.807H171.187Z" fill="#231F20"/>
<path d="M181.414 255.229V229.25H191.214C192.492 229.25 193.558 229.25 194.623 229.9C195.688 230.333 196.54 230.766 197.393 231.632C198.245 232.281 198.671 233.147 199.097 234.013C199.523 234.879 199.736 235.962 199.736 237.044C199.736 238.127 199.523 239.209 199.097 240.075C198.671 240.941 198.032 241.807 197.393 242.456C196.54 243.106 195.688 243.755 194.623 244.188C193.558 244.621 192.492 244.838 191.214 244.838H190.362L199.31 255.229H195.688L186.74 244.838H183.97V255.229H181.201H181.414ZM184.183 231.848V242.24H191.427C192.279 242.24 192.919 242.24 193.771 241.807C194.41 241.59 195.049 241.157 195.688 240.724C196.114 240.292 196.54 239.642 196.966 238.993C197.393 238.343 197.393 237.694 197.393 237.044C197.393 236.395 197.393 235.529 196.966 234.879C196.753 234.23 196.327 233.58 195.688 233.147C195.262 232.714 194.623 232.281 193.771 232.065C192.919 231.848 192.279 231.632 191.427 231.632H184.183V231.848Z" fill="#231F20"/>
<path d="M208.471 242.456C208.471 240.508 208.897 238.776 209.536 237.261C210.176 235.529 211.028 234.23 212.306 232.931C213.371 231.632 214.863 230.766 216.354 230.116C217.846 229.467 219.55 229.034 221.254 229.034C222.959 229.034 224.663 229.467 226.154 230.116C227.646 230.766 228.924 231.848 230.202 232.931C231.268 234.23 232.333 235.529 232.972 237.261C233.611 238.992 234.037 240.724 234.037 242.456C234.037 244.188 233.611 246.137 232.972 247.652C232.333 249.168 231.481 250.683 230.202 251.982C229.137 253.281 227.646 254.147 226.154 254.796C224.663 255.446 222.959 255.879 221.254 255.879C219.55 255.879 217.846 255.446 216.354 254.796C214.863 254.147 213.584 253.064 212.306 251.982C211.241 250.683 210.176 249.384 209.536 247.652C208.897 246.137 208.471 244.188 208.471 242.456ZM230.842 242.24C230.842 240.724 230.629 239.425 229.989 238.127C229.563 236.828 228.711 235.745 227.859 234.663C227.007 233.797 225.941 232.931 224.663 232.281C223.385 231.632 222.107 231.415 220.828 231.415C219.55 231.415 218.272 231.632 216.993 232.281C215.715 232.931 214.863 233.58 213.798 234.663C212.945 235.529 212.306 236.828 211.667 238.127C211.241 239.425 210.815 240.724 210.815 242.24C210.815 243.755 211.028 245.054 211.667 246.353C212.093 247.652 212.945 248.735 213.798 249.817C214.65 250.683 215.715 251.549 216.993 252.198C218.272 252.848 219.55 253.064 220.828 253.064C222.107 253.064 223.385 252.848 224.663 252.198C225.941 251.549 226.794 250.899 227.646 249.817C228.498 248.951 229.137 247.652 229.776 246.353C230.202 245.054 230.629 243.755 230.629 242.24H230.842Z" fill="#231F20"/>
<path d="M243.412 229.25H246.181V245.92C246.181 246.786 246.181 247.869 246.82 248.735C247.46 249.601 247.886 250.25 248.525 250.9C249.164 251.549 250.016 251.982 251.081 252.415C251.934 252.848 252.999 253.064 254.064 253.064C255.129 253.064 256.195 253.064 257.047 252.415C257.899 251.982 258.751 251.549 259.604 250.9C260.243 250.25 260.882 249.601 261.308 248.735C261.734 247.869 261.947 247.003 261.947 245.92V229.25H264.717V245.92C264.717 247.219 264.504 248.518 263.865 249.601C263.225 250.683 262.586 251.765 261.521 252.631C260.456 253.497 259.39 254.147 258.112 254.796C256.834 255.229 255.556 255.662 254.064 255.662C252.573 255.662 251.295 255.446 250.016 254.796C248.738 254.363 247.673 253.497 246.607 252.631C245.542 251.765 244.903 250.683 244.264 249.601C243.625 248.518 243.412 247.219 243.412 245.92V229.25Z" fill="#231F20"/>
<path d="M275.369 229.25H285.17C286.448 229.25 287.513 229.25 288.578 229.9C289.644 230.333 290.496 230.766 291.348 231.632C292.2 232.281 292.626 233.147 293.053 234.013C293.479 234.879 293.692 235.962 293.692 237.044C293.692 238.127 293.479 239.209 293.053 240.075C292.626 240.941 291.987 241.807 291.135 242.456C290.283 243.106 289.431 243.755 288.365 244.188C287.3 244.621 286.235 244.838 284.957 244.838H277.926V255.229H275.156V229.25H275.369ZM278.139 242.456H285.17C286.022 242.456 286.661 242.456 287.3 242.023C287.939 241.807 288.578 241.374 289.218 240.941C289.857 240.508 290.283 239.859 290.496 239.209C290.709 238.56 290.922 237.91 290.922 237.261C290.922 236.611 290.922 235.745 290.496 235.096C290.283 234.446 289.857 233.797 289.218 233.364C288.792 232.931 288.152 232.498 287.3 232.281C286.661 232.065 285.809 231.848 284.957 231.848H277.926V242.24L278.139 242.456Z" fill="#231F20"/>
</svg>
