<svg width="88" height="49" viewBox="0 0 88 49" fill="none" xmlns="http://www.w3.org/2000/svg">
<path d="M2.39824 32.9061C2.39824 30.3637 2.39824 29.9127 2.39824 29.3386C2.39824 28.7645 2.23175 28.5185 1.64903 28.3955C1.52416 28.3955 1.23281 28.3545 0.98307 28.3545C0.733334 28.3545 0.691711 28.3545 0.691711 28.1905C0.691711 28.0264 0.816578 28.0264 1.06631 28.0264C1.98201 28.0264 3.02257 28.0674 3.35556 28.0674C4.18801 28.0674 4.85397 28.0264 5.43668 28.0264C8.51675 28.0264 9.05785 29.6666 9.05785 30.5278C9.05785 31.8809 8.26702 32.701 7.3097 33.4391C8.68325 33.8902 10.3898 35.0793 10.3898 37.0476C10.3898 39.0158 8.9746 40.6971 5.85291 40.6971C2.73122 40.6971 5.14533 40.6971 4.64586 40.6561C4.14639 40.6561 3.60529 40.6151 3.35556 40.6151C3.10582 40.6151 2.81446 40.6151 2.39824 40.6151C2.02363 40.6151 1.56579 40.6151 1.2328 40.6151C0.899824 40.6151 0.899824 40.574 0.899824 40.451C0.899824 40.328 0.98307 40.328 1.19118 40.328C1.3993 40.328 1.64903 40.328 1.81552 40.246C2.1485 40.164 2.23175 39.7949 2.31499 39.3439C2.39824 38.6468 2.39824 37.3346 2.39824 35.7764V32.824V32.9061ZM4.43774 33.1521C4.43774 33.2751 4.47937 33.3161 4.56261 33.3571C4.7291 33.3571 4.97884 33.3981 5.35344 33.3981C5.89453 33.3981 6.26914 33.3161 6.56049 33.0701C7.01834 32.701 7.26808 32.127 7.26808 31.3069C7.26808 30.4867 6.60212 28.7235 5.14533 28.7235C3.68854 28.7235 4.77072 28.7235 4.60423 28.7235C4.47936 28.7235 4.43774 28.8055 4.43774 29.0106V33.1521ZM6.68536 34.5053C6.31076 34.2592 5.93616 34.1362 5.2702 34.0952C4.97884 34.0952 4.81235 34.0952 4.52099 34.0952C4.22963 34.0952 4.43774 34.0952 4.43774 34.2182V38.1957C4.43774 39.3029 4.47936 39.5899 5.02046 39.7949C5.47831 39.959 5.85291 40 6.26914 40C7.01834 40 8.30864 39.5899 8.30864 37.8677C8.30864 36.1455 7.93404 35.4074 6.64374 34.5463L6.68536 34.5053Z" fill="white"/>
<path d="M14.0942 32.9061C14.0942 30.3637 14.0942 29.9127 14.0942 29.3386C14.0942 28.7645 13.9277 28.5185 13.345 28.3955C13.2201 28.3955 12.9287 28.3545 12.679 28.3545C12.4293 28.3545 12.3877 28.3545 12.3877 28.1905C12.3877 28.0264 12.5125 28.0264 12.7623 28.0264C13.678 28.0264 14.7185 28.0674 15.0931 28.0674C15.6758 28.0674 16.9661 28.0264 17.5072 28.0264C18.5894 28.0264 19.7132 28.1084 20.6289 28.7645C21.0868 29.0926 21.7944 29.9537 21.7944 31.0608C21.7944 32.168 21.2533 33.4391 19.5467 34.7923C21.0452 36.6785 22.2106 38.1547 23.2511 39.1799C24.2085 40.164 24.9161 40.246 25.1658 40.328C25.3739 40.328 25.4988 40.369 25.6236 40.369C25.7485 40.369 25.8317 40.41 25.8317 40.492C25.8317 40.615 25.7069 40.6561 25.4988 40.6561H23.8755C22.9182 40.6561 22.5019 40.574 22.0441 40.328C21.2949 39.959 20.6705 39.1389 19.7132 37.8677C19.0473 36.9656 18.2564 35.8174 18.0483 35.5714C17.9651 35.4894 17.8402 35.4484 17.757 35.4484H16.3002C16.2169 35.4484 16.1753 35.4484 16.1753 35.5304V35.7764C16.1753 37.3346 16.1753 38.6468 16.2586 39.3439C16.3002 39.836 16.425 40.205 16.9245 40.246C17.1743 40.246 17.5489 40.328 17.757 40.328C17.9651 40.328 17.9651 40.369 17.9651 40.451C17.9651 40.574 17.8402 40.6151 17.6321 40.6151C16.6332 40.6151 15.3845 40.574 15.1347 40.574C14.885 40.574 13.7612 40.6151 13.0536 40.6151C12.346 40.6151 12.7206 40.574 12.7206 40.451C12.7206 40.328 12.8039 40.328 13.012 40.328C13.2201 40.328 13.4698 40.328 13.6363 40.246C13.9693 40.164 14.0526 39.7949 14.1358 39.3439C14.219 38.6468 14.219 37.3346 14.219 35.7764V32.824L14.0942 32.9061ZM16.0921 34.2182C16.0921 34.4233 16.0921 34.4643 16.2586 34.5053C16.6332 34.6283 17.1326 34.6693 17.5489 34.6693C18.2148 34.6693 18.4646 34.5873 18.7559 34.3822C19.2554 34.0132 19.7549 33.2341 19.7549 31.8809C19.7549 29.5026 18.1732 28.8055 17.1743 28.8055C16.1753 28.8055 16.425 28.8055 16.2586 28.8875C16.1337 28.8875 16.0921 28.9695 16.0921 29.1336V34.2182Z" fill="white"/>
<path d="M27.6215 36.3095C27.5383 36.3095 27.4967 36.3095 27.455 36.4325L26.5393 38.8108C26.3728 39.2209 26.2896 39.6309 26.2896 39.836C26.2896 40.123 26.4561 40.369 26.9556 40.369H27.2053C27.4134 40.369 27.455 40.369 27.455 40.492C27.455 40.6151 27.3718 40.6561 27.1637 40.6561C26.6226 40.6561 25.8734 40.6151 25.3739 40.6151C24.8744 40.6151 24.2501 40.6561 23.376 40.6561C22.5019 40.6561 23.043 40.6561 23.043 40.492C23.043 40.328 23.1263 40.369 23.2511 40.369C23.376 40.369 23.6258 40.369 23.7922 40.369C24.5831 40.287 24.9161 39.7129 25.249 38.8518L29.4945 28.3545C29.7026 27.8624 29.7859 27.6984 29.9524 27.6984C30.1189 27.6984 30.2021 27.8624 30.3686 28.2315C30.7848 29.1336 33.4903 35.9815 34.5725 38.5238C35.2385 40.041 35.6963 40.246 36.0709 40.328C36.3206 40.369 36.5704 40.41 36.7785 40.41C36.9866 40.41 36.9866 40.41 36.9866 40.5331C36.9866 40.6561 36.8201 40.6971 36.1958 40.6971C35.5714 40.6971 34.3644 40.6971 32.9908 40.6971C32.6995 40.6971 32.4914 40.6971 32.4914 40.5741C32.4914 40.451 32.5746 40.451 32.7411 40.41C32.866 40.41 32.9908 40.205 32.9076 40.041L31.534 36.4735C31.534 36.3915 31.4508 36.3505 31.3676 36.3505H27.5799L27.6215 36.3095ZM31.0762 35.4894C31.1594 35.4894 31.1594 35.4484 31.1594 35.4074L29.6194 31.2659C29.6194 31.1838 29.6194 31.1018 29.5362 31.1018C29.4529 31.1018 29.4529 31.1838 29.4529 31.2659L27.8713 35.3664C27.8713 35.4484 27.8713 35.4894 27.9545 35.4894H31.0762Z" fill="white"/>
<path d="M36.2374 29.6667C35.8628 28.7645 35.5714 28.5595 34.9471 28.3955C34.6974 28.3135 34.406 28.3135 34.2811 28.3135C34.1563 28.3135 34.073 28.2725 34.073 28.1495C34.073 28.0264 34.2395 27.9854 34.5309 27.9854C35.4466 27.9854 36.4039 28.0264 36.9866 28.0264C37.5693 28.0264 38.2353 27.9854 39.0677 27.9854C39.9002 27.9854 39.4423 27.9854 39.4423 28.1495C39.4423 28.3135 39.3591 28.3135 39.1926 28.3135C38.9012 28.3135 38.6515 28.3135 38.5266 28.4365C38.4018 28.5185 38.3601 28.6415 38.3601 28.8055C38.3601 29.0106 38.5266 29.5026 38.7347 30.0767L41.6483 37.6627H41.7316C42.4808 35.8175 44.6868 30.4458 45.0614 29.3386C45.1446 29.1336 45.2279 28.8876 45.2279 28.7235C45.2279 28.5595 45.1446 28.4365 45.0198 28.3955C44.8116 28.3135 44.5619 28.3135 44.3538 28.3135C44.1457 28.3135 44.0624 28.3135 44.0624 28.1905C44.0624 28.0675 44.2289 28.0264 44.5203 28.0264C45.3527 28.0264 46.1019 28.0675 46.3101 28.0675C46.5182 28.0675 47.3922 28.0264 47.8917 28.0264C48.3912 28.0264 48.2663 28.0264 48.2663 28.1905C48.2663 28.3545 48.1831 28.3545 47.975 28.3545C47.7668 28.3545 47.4339 28.3545 47.1425 28.5595C46.9344 28.7235 46.6847 29.0106 46.2268 30.0767C45.5609 31.6349 45.103 32.537 44.1873 34.6283C43.1051 37.0886 42.3143 38.8929 41.9397 39.754C41.4818 40.7381 41.3986 40.9841 41.1489 40.9841C40.8991 40.9841 40.8159 40.7381 40.4829 39.959L36.1958 29.7487L36.2374 29.6667Z" fill="white"/>
<path d="M49.3901 32.9061C49.3901 30.3637 49.3901 29.9127 49.3901 29.3386C49.3901 28.7645 49.2236 28.5185 48.6409 28.3955C48.5161 28.3955 48.2247 28.3545 47.975 28.3545C47.7252 28.3545 47.6836 28.3545 47.6836 28.1905C47.6836 28.0264 47.8085 28.0264 48.0582 28.0264C48.9739 28.0264 50.0145 28.0674 50.5556 28.0674C51.0967 28.0674 52.054 28.0264 52.6367 28.0264C53.2194 28.0264 53.0113 28.0264 53.0113 28.1905C53.0113 28.3545 52.928 28.3545 52.7199 28.3545C52.5118 28.3545 52.4286 28.3545 52.2205 28.3955C51.7626 28.4775 51.6377 28.7645 51.5961 29.3386C51.5961 29.8717 51.5961 30.3637 51.5961 32.9061V35.2434C51.5961 37.6627 52.0956 38.6878 52.928 39.3439C53.6773 39.959 54.4681 40.041 55.0508 40.041C55.6335 40.041 56.7157 39.7949 57.3817 39.1389C58.2974 38.2367 58.3806 36.7196 58.3806 34.9973V32.9061C58.3806 30.3637 58.3806 29.9127 58.3806 29.3386C58.3806 28.7645 58.2141 28.5185 57.6314 28.3955C57.5065 28.3955 57.2152 28.3545 57.0071 28.3545C56.7989 28.3545 56.7157 28.3545 56.7157 28.1905C56.7157 28.0264 56.8406 28.0264 57.0903 28.0264C57.9644 28.0264 59.0466 28.0674 59.0466 28.0674C59.2547 28.0674 60.3369 28.0264 61.0028 28.0264C61.6688 28.0264 61.3774 28.0264 61.3774 28.1905C61.3774 28.3545 61.2526 28.3545 61.0861 28.3545C60.9196 28.3545 60.7947 28.3545 60.5866 28.3955C60.1288 28.4775 60.0039 28.7645 59.9623 29.3386C59.9623 29.8717 59.9623 30.3637 59.9623 32.9061V34.7103C59.9623 36.5555 59.7958 38.5238 58.339 39.7539C57.1319 40.7791 55.9249 40.9431 54.8011 40.9431C53.6773 40.9431 52.2621 40.9021 51.0134 39.7949C50.1393 39.0158 49.515 37.7857 49.515 35.3664V32.9061H49.3901Z" fill="white"/>
<path d="M64.5824 32.9061C64.5824 30.3637 64.5824 29.9127 64.5824 29.3386C64.5824 28.7645 64.4159 28.5185 63.8332 28.3955C63.7083 28.3955 63.4169 28.3545 63.1672 28.3545C62.9175 28.3545 62.8758 28.3545 62.8758 28.1905C62.8758 28.0264 63.0007 28.0264 63.2504 28.0264C64.1661 28.0264 65.2067 28.0674 65.5813 28.0674C66.164 28.0674 67.4543 28.0264 67.9954 28.0264C69.0776 28.0264 70.2014 28.1084 71.1171 28.7645C71.575 29.0926 72.2825 29.9537 72.2825 31.0608C72.2825 32.168 71.7414 33.4391 70.0349 34.7923C71.5333 36.6785 72.6988 38.1547 73.7393 39.1799C74.6966 40.164 75.4042 40.246 75.654 40.328C75.8205 40.328 75.9869 40.369 76.1118 40.369C76.2367 40.369 76.3199 40.41 76.3199 40.492C76.3199 40.615 76.1951 40.6561 75.987 40.6561H74.3637C73.4063 40.6561 72.9901 40.574 72.5323 40.328C71.7831 39.959 71.1587 39.1389 70.2014 37.8677C69.5354 36.9656 68.7446 35.8174 68.5365 35.5714C68.4533 35.4894 68.37 35.4484 68.2451 35.4484H66.7467C66.6635 35.4484 66.6219 35.4484 66.6219 35.5304V35.7764C66.6219 37.3346 66.6219 38.6468 66.7051 39.3439C66.7467 39.836 66.8716 40.205 67.3711 40.246C67.6208 40.246 67.9954 40.328 68.2035 40.328C68.4116 40.328 68.4116 40.369 68.4116 40.451C68.4116 40.574 68.2868 40.6151 68.0787 40.6151C67.0797 40.6151 65.831 40.574 65.5813 40.574C65.3316 40.574 64.1661 40.6151 63.5002 40.6151C62.8342 40.6151 63.1672 40.574 63.1672 40.451C63.1672 40.328 63.2504 40.328 63.4169 40.328C63.5834 40.328 63.8748 40.328 64.0413 40.246C64.3742 40.164 64.4575 39.7949 64.5407 39.3439C64.624 38.6468 64.624 37.3346 64.624 35.7764V32.824L64.5824 32.9061ZM66.5802 34.2182C66.5802 34.4233 66.5802 34.4643 66.7467 34.5053C67.1213 34.6283 67.6208 34.6693 68.037 34.6693C68.703 34.6693 68.9527 34.5873 69.2441 34.3822C69.7436 34.0132 70.243 33.2341 70.243 31.8809C70.243 29.5026 68.6614 28.8055 67.6624 28.8055C66.6635 28.8055 66.9132 28.8055 66.7467 28.8875C66.6219 28.8875 66.5802 28.9695 66.5802 29.1336V34.2182Z" fill="white"/>
<path d="M78.1097 36.3095C78.0265 36.3095 77.9848 36.3095 77.9432 36.4325L77.0275 38.8108C76.861 39.2209 76.7778 39.6309 76.7778 39.836C76.7778 40.123 76.9443 40.369 77.4437 40.369H77.6935C77.9016 40.369 77.9432 40.369 77.9432 40.492C77.9432 40.6151 77.8183 40.6561 77.6519 40.6561C77.1108 40.6561 76.3616 40.6151 75.8621 40.6151C75.3626 40.6151 74.7383 40.6561 73.8642 40.6561C72.9901 40.6561 73.5312 40.6561 73.5312 40.492C73.5312 40.328 73.6145 40.369 73.7393 40.369C73.8642 40.369 74.1139 40.369 74.2804 40.369C75.0713 40.287 75.4042 39.7129 75.7372 38.8518L79.9827 28.3545C80.1908 27.8624 80.2741 27.6984 80.4406 27.6984C80.6071 27.6984 80.6903 27.8624 80.8568 28.2315C81.273 29.1336 83.9785 35.9815 85.0607 38.5238C85.7266 40.041 86.1845 40.246 86.5591 40.328C86.8088 40.369 87.0586 40.41 87.2667 40.41C87.4748 40.41 87.4748 40.41 87.4748 40.5331C87.4748 40.6561 87.3083 40.6971 86.684 40.6971C86.0596 40.6971 84.8109 40.6971 83.479 40.6971C83.1877 40.6971 82.9795 40.6971 82.9795 40.5741C82.9795 40.451 83.0628 40.451 83.2293 40.41C83.3541 40.41 83.479 40.205 83.3958 40.041L82.0222 36.4735C82.0222 36.3915 81.939 36.3505 81.8557 36.3505H78.0681L78.1097 36.3095ZM81.5644 35.4894C81.6476 35.4894 81.6476 35.4484 81.6476 35.4074L80.1076 31.2659C80.1076 31.1838 80.1076 31.1018 80.0243 31.1018C79.9411 31.1018 79.9411 31.1838 79.9411 31.2659L78.3594 35.3664C78.3594 35.4484 78.3594 35.4894 78.4427 35.4894H81.5644Z" fill="white"/>
<path d="M52.1372 3.13624C52.1372 3.13624 51.9707 4.03836 50.8053 4.81746C49.6399 5.59656 48.4328 5.84259 48.4328 5.84259C48.4328 5.84259 47.5171 5.22751 46.9344 5.06349C46.3933 4.85846 45.0614 5.02248 45.0614 5.02248C45.0614 5.02248 46.1852 4.24338 46.5182 3.79233C46.9344 3.25926 47.1009 2.93121 47.1009 2.93121C47.1009 2.93121 50.3891 3.54629 52.1372 3.13624Z" fill="white"/>
<path d="M28.5372 9.53306C28.5372 9.53306 28.6205 9.41004 28.9951 9.24602C29.3697 9.123 30.327 8.22089 30.327 8.22089C30.327 8.22089 29.2448 8.71295 28.8702 8.95898C28.4956 9.20501 28.1626 9.082 28.121 8.63094C28.121 8.17988 29.8691 7.15475 30.4935 6.70369C31.1178 6.25263 31.5757 5.80158 31.5757 5.80158C31.5757 5.80158 32.6162 6.70369 32.7827 6.90872C32.9492 7.11374 33.6568 7.72882 34.3644 7.68782C35.1136 7.68782 34.9887 6.94972 35.2801 6.82671C35.5714 6.70369 33.1157 6.70369 33.1157 6.70369L31.7838 5.59655C31.7838 5.59655 32.3249 4.98147 33.0741 4.4484C33.8233 3.91533 35.4882 3.17724 35.4882 3.17724C35.4882 3.17724 36.4455 1.82406 37.1947 1.29099C37.9439 0.757924 40.1083 0.757924 40.3996 0.798929C40.691 0.88094 37.9023 2.56216 37.9023 2.9312V3.42327C37.9023 3.42327 40.3996 1.53702 40.7742 1.20898C41.2321 0.798929 41.6483 0.593903 41.6483 0.593903C41.6483 0.593903 42.6473 1.90607 42.4392 3.30025C42.231 4.69443 41.357 5.35052 41.357 5.35052C41.357 5.35052 42.6889 4.85845 42.8554 3.87433C43.0219 2.9312 42.8554 1.57803 42.8554 1.57803H45.6441C45.6441 1.57803 46.3101 1.45502 46.9344 0.71692C47.3506 0.265862 47.309 0.18385 47.2257 1.00396C47.1009 1.82406 47.1009 3.46427 45.0197 4.57142C42.9386 5.67856 42.1062 5.71956 42.1062 5.71956C42.1062 5.71956 45.7273 4.94046 46.8095 5.43253C47.8917 5.9656 48.9739 7.27776 50.4723 8.01586C51.8042 8.71295 53.4275 8.71295 53.4275 8.71295C53.4275 8.71295 52.5951 9.94311 51.5545 10.1071C50.5139 10.2712 48.3079 9.57406 47.2674 9.20501C46.2268 8.83597 45.8106 8.50792 44.1457 8.54893C43.7295 8.54893 42.4392 8.83597 42.4392 8.83597C42.4392 8.83597 45.0614 9.20502 47.2674 10.1071C49.4734 11.0092 51.5961 11.5423 53.1362 11.2963C54.6762 11.0503 55.2173 10.8042 55.2173 10.8042C55.2173 10.8042 54.9259 12.4854 53.5108 13.1415C51.9291 13.8796 50.4723 13.5106 49.3485 12.8955C48.2663 12.2804 46.8511 11.0913 45.6857 10.6812C44.5203 10.2711 43.6046 10.2301 43.6046 10.2301C43.6046 10.2301 48.0166 12.1164 48.3496 16.2989C48.8074 22.4087 43.6878 24.418 43.6878 24.418C43.6878 24.418 45.8522 21.3016 46.0603 18.5132C46.2684 15.8479 45.8938 14.7817 45.1862 13.8386C44.5203 12.8955 42.9802 11.5423 42.9802 11.5423C42.9802 11.5423 45.436 14.2897 45.5608 16.709C45.6441 18.4722 45.1862 21.0145 43.6046 22.7778C42.0229 24.5 41.6899 25.0741 41.7732 26.7553C41.7732 27.5344 42.3559 32.004 42.3559 32.004C42.3559 32.004 39.3591 25.1971 39.6088 22.2857C39.8586 19.4153 41.8564 17.8571 42.5224 16.709C43.1884 15.5608 43.1884 13.9616 42.8138 12.8135C42.4391 11.6653 42.0229 10.9682 41.7732 10.3532C41.5235 9.73808 41.2321 8.50792 41.2321 8.50792C41.2321 8.50792 41.1905 9.69708 41.3986 10.5582C41.6483 11.4193 41.7732 12.8955 39.6504 15.0688C37.5277 17.2421 37.1115 17.3651 36.0293 17.8981C35.2801 18.2672 34.1563 17.9801 34.073 16.873C34.0314 15.8069 34.073 14.0436 34.073 14.0436C34.073 14.0436 35.0303 15.5608 35.7379 14.9458C36.4039 14.3307 36.9866 13.7976 37.1947 13.2235C37.3612 12.7725 37.2363 12.7315 37.2363 12.7315C37.2363 12.7315 36.0709 12.3214 35.1552 12.7315C34.2395 13.1415 31.9919 15.4788 30.4518 15.4788C28.9118 15.4788 28.454 14.4947 28.3291 14.0436C28.1626 13.5516 28.2875 12.7725 28.2875 12.7725C28.2875 12.7725 29.2032 15.1098 30.7848 14.6177C32.3665 14.1256 33.9898 12.3624 34.5725 12.0344C35.3217 11.5833 37.3196 11.6243 37.3196 11.6243C37.3196 11.6243 36.7785 9.98412 35.2384 10.1071C33.6984 10.2301 32.2416 10.6402 32.2416 11.4193C32.2416 12.1984 32.2832 13.1415 32.2832 13.1415C32.2832 13.1415 29.8691 11.8294 29.6194 11.4603C29.1199 10.8452 29.1615 10.1891 29.1615 10.1891C29.1615 10.1891 30.4518 9.41004 31.0762 8.63094C31.7005 7.85184 31.867 7.85184 31.867 7.85184C31.867 7.85184 32.6995 8.13888 33.1989 8.13888C33.6984 8.13888 32.1584 7.72882 31.7838 7.40078C31.4092 7.11374 31.0346 8.26189 30.0356 9.04099C28.9951 9.82009 28.8286 9.65607 28.6205 9.45104" fill="white"/>
<path d="M47.4755 12.7315C47.4755 12.7315 50.722 15.6018 53.8854 15.2328C56.0914 14.9458 56.5076 14.4127 56.5076 14.4127C56.5076 14.4127 56.5076 17.2421 53.261 17.16C50.6388 17.078 49.7231 16.0119 48.849 14.8638C47.9749 13.7156 47.4755 12.7315 47.4755 12.7315Z" fill="white"/>
<path d="M41.1488 4.03837C41.1488 4.03837 41.3986 2.31615 40.8991 2.27515C40.5245 2.27515 38.2353 3.95636 38.2353 3.95636L41.024 6.12964C41.024 6.12964 40.6078 5.35054 40.1083 4.89948C39.6088 4.40742 38.9012 4.03837 38.9012 4.03837L40.691 2.6852C40.691 2.6852 41.1905 3.42329 41.1488 4.03837Z" fill="white"/>
<path d="M49.0571 6.29362C49.0571 6.29362 51.3048 6.58066 52.0956 6.29362C53.8854 5.63754 54.1351 4.77643 54.1351 4.77643C54.1351 4.77643 54.9675 9.28701 49.0571 6.29362Z" fill="white"/>
<path d="M34.073 46.1508V48.037C33.5319 48.5291 32.9908 48.7341 32.3665 48.7341C31.7422 48.7341 31.7005 48.6521 31.4092 48.5291C31.1178 48.4061 30.8681 48.2011 30.6183 47.996C30.4102 47.75 30.2021 47.504 30.0772 47.1759C29.9524 46.8889 29.8691 46.5608 29.8691 46.1918C29.8691 45.8228 29.9524 45.5357 30.0772 45.2077C30.2021 44.8796 30.3686 44.6336 30.6183 44.3876C30.8265 44.1415 31.1178 43.9775 31.4092 43.8545C31.7005 43.7315 32.0335 43.6495 32.3249 43.6495C32.6162 43.6495 32.9492 43.6905 33.2406 43.8135C33.5319 43.9365 33.74 44.0595 33.9481 44.2235L33.6984 44.6746C33.3238 44.3056 32.866 44.1415 32.4081 44.1415C31.9503 44.1415 31.9086 44.1825 31.6589 44.3056C31.4092 44.4286 31.2427 44.5516 31.0346 44.7566C30.8681 44.9206 30.7432 45.1667 30.6183 45.4127C30.5351 45.6587 30.4518 45.9048 30.4518 46.1918C30.4518 46.4788 30.4935 46.7249 30.6183 46.9709C30.7016 47.2169 30.8681 47.422 31.0346 47.627C31.2011 47.832 31.4092 47.955 31.6173 48.078C31.8254 48.2011 32.0751 48.2421 32.3249 48.2421C32.5746 48.2421 32.7827 48.2421 32.9908 48.119C33.1989 47.996 33.4071 47.914 33.5319 47.791V46.6429H32.4081V46.1508H34.073Z" fill="white"/>
<path d="M36.0709 48.6931V43.7725H37.9855C38.2353 43.7725 38.4434 43.7725 38.6515 43.8955C38.8596 43.9775 39.0261 44.0595 39.1926 44.2236C39.3591 44.3466 39.4423 44.5106 39.5256 44.6746C39.6088 44.8386 39.6504 45.0437 39.6504 45.2487C39.6504 45.4537 39.6088 45.6587 39.5256 45.8228C39.4423 45.9868 39.3175 46.1508 39.1926 46.2738C39.0261 46.3968 38.8596 46.5198 38.6515 46.6019C38.4434 46.6839 38.2353 46.7249 37.9855 46.7249H37.819L39.5672 48.6931H38.8596L37.1115 46.7249H36.5704V48.6931H36.0293H36.0709ZM36.612 44.2646V46.2328H38.0272C38.1937 46.2328 38.3185 46.2328 38.485 46.1508C38.6099 46.1098 38.7347 46.0278 38.8596 45.9458C38.9429 45.8638 39.0261 45.7407 39.1093 45.6177C39.1926 45.4947 39.1926 45.3717 39.1926 45.2487C39.1926 45.1257 39.1926 44.9616 39.1093 44.8386C39.0677 44.7156 38.9845 44.5926 38.8596 44.5106C38.7764 44.4286 38.6515 44.3466 38.485 44.3056C38.3185 44.2646 38.1937 44.2236 38.0272 44.2236H36.612V44.2646Z" fill="white"/>
<path d="M41.357 46.2738C41.357 45.9048 41.4402 45.5767 41.5651 45.2897C41.6899 44.9616 41.8564 44.7156 42.1062 44.4696C42.3143 44.2235 42.6056 44.0595 42.897 43.9365C43.1884 43.8135 43.5213 43.7315 43.8543 43.7315C44.1873 43.7315 44.5203 43.8135 44.8116 43.9365C45.103 44.0595 45.3527 44.2645 45.6025 44.4696C45.8106 44.7156 46.0187 44.9616 46.1436 45.2897C46.2684 45.6177 46.3517 45.9458 46.3517 46.2738C46.3517 46.6018 46.2684 46.9709 46.1436 47.2579C46.0187 47.545 45.8522 47.832 45.6025 48.078C45.3944 48.3241 45.103 48.4881 44.8116 48.6111C44.5203 48.7341 44.1873 48.8161 43.8543 48.8161C43.5213 48.8161 43.1884 48.7341 42.897 48.6111C42.6056 48.4881 42.3559 48.2831 42.1062 48.078C41.8981 47.832 41.6899 47.586 41.5651 47.2579C41.4402 46.9709 41.357 46.6018 41.357 46.2738ZM45.7273 46.2328C45.7273 45.9458 45.6857 45.6997 45.5608 45.4537C45.4776 45.2077 45.3111 45.0026 45.1446 44.7976C44.9781 44.6336 44.77 44.4696 44.5203 44.3466C44.2705 44.2235 44.0208 44.1825 43.7711 44.1825C43.5213 44.1825 43.2716 44.2235 43.0219 44.3466C42.7721 44.4696 42.6056 44.5926 42.3975 44.7976C42.231 44.9616 42.1062 45.2077 41.9813 45.4537C41.8981 45.6997 41.8148 45.9458 41.8148 46.2328C41.8148 46.5198 41.8564 46.7659 41.9813 47.0119C42.0645 47.2579 42.231 47.463 42.3975 47.668C42.564 47.832 42.7721 47.996 43.0219 48.119C43.2716 48.2421 43.5213 48.2831 43.7711 48.2831C44.0208 48.2831 44.2705 48.2421 44.5203 48.119C44.77 47.996 44.9365 47.873 45.103 47.668C45.2695 47.504 45.3944 47.2579 45.5192 47.0119C45.6025 46.7659 45.6857 46.5198 45.6857 46.2328H45.7273Z" fill="white"/>
<path d="M48.1831 43.7725H48.7242V46.9299C48.7242 47.0939 48.7242 47.2989 48.849 47.463C48.9739 47.627 49.0571 47.75 49.182 47.873C49.3069 47.996 49.4734 48.0781 49.6815 48.1601C49.848 48.2421 50.0561 48.2831 50.2642 48.2831C50.4723 48.2831 50.6804 48.2831 50.8469 48.1601C51.0134 48.0781 51.1799 47.996 51.3464 47.873C51.4713 47.75 51.5961 47.627 51.6794 47.463C51.7626 47.2989 51.8042 47.1349 51.8042 46.9299V43.7725H52.3453V46.9299C52.3453 47.1759 52.3037 47.422 52.1788 47.627C52.054 47.832 51.9291 48.037 51.721 48.2011C51.5129 48.3651 51.3048 48.4881 51.055 48.6111C50.8053 48.6931 50.5556 48.7751 50.2642 48.7751C49.9728 48.7751 49.7231 48.7341 49.4734 48.6111C49.2236 48.5291 49.0155 48.3651 48.8074 48.2011C48.5993 48.037 48.4744 47.832 48.3496 47.627C48.2247 47.422 48.1831 47.1759 48.1831 46.9299V43.7725Z" fill="white"/>
<path d="M54.4265 43.7725H56.3411C56.5908 43.7725 56.7989 43.7725 57.0071 43.8955C57.2152 43.9775 57.3817 44.0595 57.5481 44.2236C57.7146 44.3466 57.7979 44.5106 57.8811 44.6746C57.9644 44.8386 58.006 45.0437 58.006 45.2487C58.006 45.4537 57.9644 45.6587 57.8811 45.8228C57.7979 45.9868 57.673 46.1508 57.5065 46.2738C57.34 46.3968 57.1735 46.5198 56.9654 46.6019C56.7573 46.6839 56.5492 46.7249 56.2995 46.7249H54.9259V48.6931H54.3848V43.7725H54.4265ZM54.9676 46.2738H56.3411C56.5076 46.2738 56.6324 46.2738 56.7573 46.1918C56.8822 46.1508 57.0071 46.0688 57.1319 45.9868C57.2568 45.9048 57.34 45.7818 57.3817 45.6587C57.4233 45.5357 57.4649 45.4127 57.4649 45.2897C57.4649 45.1667 57.4649 45.0027 57.3817 44.8796C57.34 44.7566 57.2568 44.6336 57.1319 44.5516C57.0487 44.4696 56.9238 44.3876 56.7573 44.3466C56.6324 44.3056 56.466 44.2646 56.2995 44.2646H54.9259V46.2328L54.9676 46.2738Z" fill="white"/>
</svg>
